<?xml version="1.0" encoding="utf-8"?>
<!-- Generator: Adobe Illustrator 19.1.0, SVG Export Plug-In . SVG Version: 6.00 Build 0)  -->
<svg version="1.1" id="画板_1_1_" xmlns="http://www.w3.org/2000/svg" xmlns:xlink="http://www.w3.org/1999/xlink" x="0px"
	 y="0px" viewBox="0 0 869 113" style="enable-background:new 0 0 869 113;" xml:space="preserve">
<style type="text/css">
	.st0{fill:none;}
	.st1{fill:#00CC99;stroke:#00CC99;stroke-width:3;stroke-miterlimit:10;}
	.st2{fill:#333333;stroke:#333333;stroke-width:3;stroke-miterlimit:10;}
	.st3{fill:#999999;}
</style>
<g id="切片列表">
	<rect id="_x3C_切片_x3E_" x="22" y="223" class="st0" width="897" height="115"/>
</g>
<g id="MWSOHO.com_1_">
</g>
<g id="MWSOHO.com">
	<path class="st1" d="M58,69.8c0.7,1.6,1.3,3.2,2,4.9c0.7-1.7,1.3-3.4,2-5c0.7-1.6,1.4-3.2,2.2-4.7L94.2,8.9
		c0.4-0.7,0.8-1.3,1.2-1.7s0.9-0.7,1.4-0.9c0.5-0.2,1-0.3,1.6-0.4c0.6,0,1.3-0.1,2.2-0.1h14.2v101.2H98.2V41.7c0-1.2,0-2.5,0.1-4
		c0.1-1.4,0.2-2.9,0.3-4.4L68,90.7c-1.4,2.8-3.7,4.1-6.6,4.1h-2.7c-3,0-5.2-1.4-6.6-4.1L21.1,33.1c0.1,1.5,0.3,3,0.4,4.5
		c0.1,1.5,0.1,2.8,0.1,4.1v65.4H5V5.9h14.2c0.8,0,1.6,0,2.2,0.1C22,6,22.5,6.1,23,6.3c0.5,0.2,0.9,0.5,1.3,0.9
		c0.4,0.4,0.8,1,1.2,1.7l30.3,56.2C56.6,66.6,57.3,68.2,58,69.8z"/>
	<path class="st2" d="M130.7,5.9h15.8c1.6,0,3,0.4,4.1,1.2c1.1,0.8,1.8,1.8,2.2,3.1L170,70.7c0.4,1.5,0.7,3.1,1.1,4.9
		c0.4,1.8,0.7,3.6,1.1,5.6c0.4-2,0.8-3.8,1.2-5.6c0.4-1.8,0.9-3.4,1.4-4.9l19.9-60.5c0.4-1.1,1.1-2.1,2.2-2.9c1.1-0.9,2.4-1.3,4-1.3
		h5.5c1.6,0,3,0.4,4,1.2c1,0.8,1.8,1.8,2.3,3.1l19.8,60.5c1,2.9,1.9,6.2,2.7,10c0.6-3.7,1.3-7,2-10l17.2-60.5c0.3-1.2,1-2.2,2.1-3
		c1.1-0.8,2.5-1.3,4.1-1.3h14.8L244,107.1h-17L204.9,38c-0.3-0.9-0.6-1.8-0.9-2.9c-0.3-1-0.6-2.1-0.8-3.2c-0.2,1.1-0.5,2.2-0.8,3.2
		c-0.3,1-0.6,2-0.9,2.9l-22.3,69.2h-17.1L130.7,5.9z"/>
	<path class="st1" d="M345.3,24.3c-0.6,1-1.2,1.7-1.8,2.1c-0.6,0.4-1.4,0.7-2.3,0.7c-1,0-2-0.4-3.2-1.1c-1.1-0.7-2.5-1.5-4.1-2.4
		c-1.6-0.9-3.4-1.7-5.6-2.4c-2.1-0.7-4.6-1.1-7.5-1.1c-2.6,0-4.9,0.3-6.9,0.9c-2,0.6-3.6,1.5-4.9,2.6c-1.3,1.1-2.3,2.5-3,4
		c-0.7,1.6-1,3.3-1,5.1c0,2.4,0.7,4.4,2,5.9c1.3,1.6,3.1,2.9,5.3,4.1c2.2,1.1,4.7,2.1,7.5,3c2.8,0.9,5.7,1.8,8.6,2.8
		c2.9,1,5.8,2.2,8.6,3.5s5.3,3,7.5,5c2.2,2,4,4.5,5.3,7.5c1.3,2.9,2,6.5,2,10.7c0,4.6-0.8,8.9-2.3,12.8c-1.6,4-3.8,7.5-6.9,10.4
		c-3,3-6.7,5.3-11,7c-4.3,1.7-9.3,2.6-14.9,2.6c-3.2,0-6.4-0.3-9.5-0.9c-3.1-0.6-6.1-1.5-9-2.7c-2.9-1.2-5.6-2.6-8.1-4.2
		c-2.5-1.6-4.8-3.5-6.7-5.5l5.5-9c0.5-0.7,1.1-1.2,1.8-1.6c0.7-0.4,1.5-0.7,2.4-0.7c1.2,0,2.4,0.5,3.8,1.4c1.4,1,3,2,4.8,3.2
		c1.9,1.2,4,2.2,6.5,3.2c2.5,1,5.5,1.4,9,1.4c5.4,0,9.5-1.3,12.5-3.8c2.9-2.5,4.4-6.2,4.4-11c0-2.7-0.7-4.8-2-6.5
		c-1.3-1.7-3.1-3.1-5.3-4.2c-2.2-1.1-4.7-2.1-7.5-2.9c-2.8-0.8-5.6-1.7-8.5-2.6c-2.9-0.9-5.7-2.1-8.5-3.4c-2.8-1.3-5.3-3-7.5-5.1
		c-2.2-2.1-4-4.7-5.3-7.9c-1.3-3.2-2-7-2-11.7c0-3.7,0.7-7.3,2.2-10.8s3.6-6.6,6.4-9.3c2.8-2.7,6.3-4.9,10.4-6.5
		c4.1-1.6,8.8-2.5,14.1-2.5c6,0,11.5,0.9,16.5,2.8c5,1.9,9.3,4.5,12.9,7.8L345.3,24.3z"/>
	<path class="st1" d="M470.4,56.1c0,7.4-1.3,14.2-3.8,20.6c-2.5,6.3-6.1,11.9-10.7,16.6c-4.6,4.7-10.2,8.4-16.7,11
		c-6.5,2.7-13.7,4-21.7,4c-7.9,0-15.2-1.3-21.7-4c-6.5-2.7-12.1-6.3-16.8-11c-4.6-4.7-8.2-10.2-10.8-16.6
		c-2.5-6.3-3.8-13.2-3.8-20.6c0-7.4,1.3-14.2,3.8-20.6c2.5-6.3,6.1-11.9,10.8-16.5c4.6-4.7,10.2-8.3,16.8-11c6.5-2.7,13.8-4,21.7-4
		c7.9,0,15.2,1.3,21.7,4c6.5,2.7,12.1,6.4,16.7,11c4.6,4.7,8.2,10.2,10.7,16.5C469.2,41.9,470.4,48.8,470.4,56.1z M446.2,56.1
		c0-5-0.7-9.6-2-13.6c-1.3-4-3.2-7.5-5.6-10.3c-2.5-2.8-5.4-4.9-9-6.4c-3.5-1.5-7.6-2.2-12.1-2.2c-4.6,0-8.6,0.7-12.2,2.2
		c-3.6,1.5-6.6,3.6-9,6.4c-2.5,2.8-4.3,6.2-5.6,10.3c-1.3,4-2,8.6-2,13.6c0,5.1,0.7,9.6,2,13.7c1.3,4,3.2,7.5,5.6,10.3
		c2.4,2.8,5.5,4.9,9,6.4c3.6,1.5,7.6,2.2,12.2,2.2c4.5,0,8.6-0.7,12.1-2.2c3.5-1.5,6.5-3.6,9-6.4c2.4-2.8,4.3-6.2,5.6-10.3
		C445.6,65.7,446.2,61.2,446.2,56.1z"/>
	<path class="st1" d="M574.6,107.1h-18.9V62.9h-47.5v44.2h-18.9V5.9h18.9v43.5h47.5V5.9h18.9V107.1z"/>
	<path class="st1" d="M697.2,56.5c0,7.4-1.2,14.3-3.7,20.6c-2.5,6.3-5.9,11.8-10.4,16.4c-4.5,4.6-9.9,8.2-16.2,10.8
		c-6.3,2.6-13.3,3.9-21,3.9c-7.7,0-14.6-1.3-20.9-3.9c-6.3-2.6-11.7-6.2-16.2-10.8c-4.5-4.6-8-10.1-10.5-16.4
		c-2.5-6.3-3.7-13.2-3.7-20.6s1.2-14.3,3.7-20.6c2.5-6.3,6-11.8,10.5-16.4c4.5-4.6,9.9-8.2,16.2-10.8s13.3-3.9,20.9-3.9
		c5.1,0,10,0.6,14.5,1.8c4.5,1.2,8.7,2.9,12.5,5s7.2,4.8,10.2,7.9c3,3.1,5.6,6.6,7.7,10.4c2.1,3.8,3.7,8,4.8,12.5
		C696.6,46.8,697.2,51.6,697.2,56.5z M677.9,56.5c0-5.6-0.7-10.5-2.2-14.9c-1.5-4.4-3.6-8.2-6.4-11.2c-2.8-3.1-6.1-5.4-10-7.1
		c-3.9-1.6-8.4-2.4-13.3-2.4s-9.4,0.8-13.3,2.4c-3.9,1.6-7.3,4-10.1,7.1s-4.9,6.8-6.4,11.2c-1.5,4.4-2.2,9.4-2.2,14.9
		c0,5.6,0.7,10.5,2.2,14.9c1.5,4.4,3.6,8.1,6.4,11.2c2.8,3.1,6.1,5.4,10.1,7c3.9,1.6,8.4,2.4,13.3,2.4s9.4-0.8,13.3-2.4
		c3.9-1.6,7.3-4,10-7c2.8-3.1,4.9-6.8,6.4-11.2C677.2,67,677.9,62.1,677.9,56.5z"/>
	<path class="st3" d="M709.1,102.2c0-0.7,0.1-1.5,0.4-2.1c0.3-0.7,0.7-1.2,1.1-1.7c0.5-0.5,1.1-0.9,1.7-1.2c0.7-0.3,1.4-0.4,2.2-0.4
		c0.8,0,1.5,0.1,2.1,0.4c0.7,0.3,1.2,0.7,1.7,1.2c0.5,0.5,0.9,1.1,1.2,1.7s0.4,1.4,0.4,2.1c0,0.8-0.1,1.5-0.4,2.1s-0.7,1.2-1.2,1.7
		c-0.5,0.5-1.1,0.9-1.7,1.1c-0.7,0.3-1.4,0.4-2.1,0.4c-0.8,0-1.5-0.1-2.2-0.4c-0.7-0.3-1.2-0.7-1.7-1.1c-0.5-0.5-0.9-1-1.1-1.7
		C709.2,103.7,709.1,103,709.1,102.2z"/>
	<path class="st3" d="M755.7,78c-0.3,0.3-0.5,0.6-0.8,0.8c-0.3,0.2-0.6,0.3-1.1,0.3c-0.5,0-0.9-0.1-1.3-0.4
		c-0.4-0.3-0.9-0.6-1.5-0.9c-0.6-0.3-1.3-0.7-2.1-0.9c-0.8-0.3-1.9-0.4-3.1-0.4c-1.6,0-2.9,0.3-4.1,0.8c-1.2,0.6-2.2,1.4-2.9,2.4
		c-0.8,1.1-1.4,2.3-1.7,3.8c-0.4,1.5-0.6,3.2-0.6,5.1c0,2,0.2,3.7,0.6,5.3c0.4,1.5,1,2.8,1.8,3.9s1.8,1.8,2.9,2.4
		c1.1,0.5,2.4,0.8,3.8,0.8s2.6-0.2,3.4-0.5c0.9-0.3,1.6-0.7,2.2-1.2c0.6-0.4,1.1-0.8,1.6-1.2c0.4-0.3,0.9-0.5,1.5-0.5
		c0.7,0,1.3,0.3,1.6,0.8l2.6,3.2c-1,1.2-2.1,2.1-3.2,2.9c-1.2,0.8-2.3,1.4-3.6,1.9c-1.2,0.5-2.5,0.8-3.8,1c-1.3,0.2-2.6,0.3-3.9,0.3
		c-2.3,0-4.4-0.4-6.4-1.3c-2-0.9-3.8-2.1-5.3-3.7c-1.5-1.6-2.7-3.6-3.6-6c-0.9-2.4-1.3-5.1-1.3-8.1c0-2.7,0.4-5.2,1.2-7.5
		c0.8-2.3,1.9-4.3,3.4-6c1.5-1.7,3.4-3,5.6-4c2.2-1,4.8-1.4,7.7-1.4c2.8,0,5.2,0.4,7.3,1.3c2.1,0.9,3.9,2.2,5.6,3.8L755.7,78z"/>
	<path class="st3" d="M782.1,69.6c2.7,0,5.2,0.4,7.5,1.3s4.2,2.1,5.8,3.8c1.6,1.6,2.8,3.6,3.7,6c0.9,2.4,1.3,5,1.3,7.9
		c0,2.9-0.4,5.6-1.3,7.9c-0.9,2.4-2.1,4.4-3.7,6c-1.6,1.7-3.5,2.9-5.8,3.8s-4.7,1.3-7.5,1.3c-2.8,0-5.3-0.4-7.5-1.3
		s-4.2-2.2-5.8-3.8c-1.6-1.7-2.8-3.7-3.7-6c-0.9-2.4-1.3-5-1.3-7.9c0-2.9,0.4-5.5,1.3-7.9c0.9-2.4,2.1-4.3,3.7-6
		c1.6-1.6,3.5-2.9,5.8-3.8S779.4,69.6,782.1,69.6z M782.1,100.8c3.1,0,5.3-1,6.8-3.1c1.5-2.1,2.2-5.1,2.2-9.1c0-4-0.7-7-2.2-9.1
		c-1.5-2.1-3.8-3.1-6.8-3.1c-3.1,0-5.4,1-6.9,3.2c-1.5,2.1-2.2,5.1-2.2,9.1s0.8,7,2.2,9.1C776.7,99.8,779,100.8,782.1,100.8z"/>
	<path class="st3" d="M808.9,107.1V70.2h5.4c1.2,0,1.9,0.5,2.3,1.6l0.6,2.7c0.6-0.7,1.3-1.4,2-2s1.5-1.1,2.3-1.5
		c0.8-0.4,1.7-0.8,2.6-1s1.9-0.4,3-0.4c2.3,0,4.2,0.6,5.7,1.9s2.6,2.9,3.4,5c0.6-1.2,1.3-2.3,2.2-3.2c0.9-0.9,1.8-1.6,2.8-2.1
		c1-0.6,2.1-1,3.3-1.2c1.2-0.3,2.3-0.4,3.5-0.4c2,0,3.9,0.3,5.4,0.9c1.6,0.6,2.9,1.5,4,2.7s1.9,2.7,2.5,4.4c0.6,1.7,0.8,3.7,0.8,5.9
		v23.5h-8.9V83.6c0-2.4-0.5-4.1-1.5-5.3c-1-1.2-2.5-1.8-4.5-1.8c-0.9,0-1.8,0.2-2.5,0.5c-0.8,0.3-1.5,0.8-2.1,1.3
		c-0.6,0.6-1,1.3-1.4,2.2c-0.3,0.9-0.5,1.9-0.5,3.1v23.5h-8.9V83.6c0-2.5-0.5-4.3-1.5-5.4c-1-1.1-2.5-1.7-4.4-1.7
		c-1.3,0-2.5,0.3-3.6,1c-1.1,0.6-2.2,1.5-3.1,2.6v27H808.9z"/>
</g>
</svg>
